<mxfile host="65bd71144e">
    <diagram id="lvpfUFFTey9cZWl097ZF" name="MADLIB-Architecture">
        <mxGraphModel dx="1179" dy="662" grid="1" gridSize="10" guides="1" tooltips="1" connect="1" arrows="1" fold="1" page="1" pageScale="1" pageWidth="827" pageHeight="1169" math="0" shadow="0">
            <root>
                <mxCell id="0"/>
                <mxCell id="1" parent="0"/>
                <mxCell id="9" style="edgeStyle=none;html=1;exitX=0.5;exitY=1;exitDx=0;exitDy=0;" edge="1" parent="1" source="4" target="6">
                    <mxGeometry relative="1" as="geometry"/>
                </mxCell>
                <mxCell id="4" value="Game Starts" style="ellipse;whiteSpace=wrap;html=1;fillColor=#d5e8d4;strokeColor=#82b366;" vertex="1" parent="1">
                    <mxGeometry x="354" y="40" width="120" height="80" as="geometry"/>
                </mxCell>
                <mxCell id="20" style="edgeStyle=orthogonalEdgeStyle;rounded=0;sketch=0;jumpStyle=none;html=1;exitX=1;exitY=0.5;exitDx=0;exitDy=0;entryX=0.5;entryY=0;entryDx=0;entryDy=0;shadow=0;" edge="1" parent="1" source="6" target="8">
                    <mxGeometry relative="1" as="geometry"/>
                </mxCell>
                <mxCell id="21" style="edgeStyle=orthogonalEdgeStyle;rounded=0;sketch=0;jumpStyle=none;html=1;exitX=0;exitY=0.5;exitDx=0;exitDy=0;entryX=0.5;entryY=0;entryDx=0;entryDy=0;shadow=0;" edge="1" parent="1" source="6" target="35">
                    <mxGeometry relative="1" as="geometry">
                        <mxPoint x="119.99999999999977" y="300" as="targetPoint"/>
                    </mxGeometry>
                </mxCell>
                <mxCell id="24" style="edgeStyle=orthogonalEdgeStyle;rounded=0;sketch=0;jumpStyle=none;html=1;exitX=0.5;exitY=1;exitDx=0;exitDy=0;entryX=0.5;entryY=0;entryDx=0;entryDy=0;shadow=0;" edge="1" parent="1" source="6" target="23">
                    <mxGeometry relative="1" as="geometry"/>
                </mxCell>
                <mxCell id="6" value="&lt;b&gt;[&lt;font color=&quot;#c02121&quot;&gt;Prompt-1&lt;/font&gt;]&lt;/b&gt;&lt;br&gt;User asked for there input:&lt;br&gt;(q for quit, r for rules and key to contiue)" style="shape=parallelogram;perimeter=parallelogramPerimeter;whiteSpace=wrap;html=1;fixedSize=1;fillColor=#fff2cc;strokeColor=#d6b656;" vertex="1" parent="1">
                    <mxGeometry x="285" y="170" width="257" height="90" as="geometry"/>
                </mxCell>
                <mxCell id="29" style="edgeStyle=orthogonalEdgeStyle;rounded=0;sketch=0;jumpStyle=none;html=1;exitX=0;exitY=0.5;exitDx=0;exitDy=0;entryX=0.75;entryY=1;entryDx=0;entryDy=0;shadow=0;" edge="1" parent="1" source="8" target="6">
                    <mxGeometry relative="1" as="geometry"/>
                </mxCell>
                <mxCell id="8" value="Show rules of the game&amp;nbsp;" style="rounded=0;whiteSpace=wrap;html=1;" vertex="1" parent="1">
                    <mxGeometry x="670" y="300" width="120" height="60" as="geometry"/>
                </mxCell>
                <mxCell id="23" value="exit" style="ellipse;whiteSpace=wrap;html=1;fillColor=#f8cecc;strokeColor=#b85450;" vertex="1" parent="1">
                    <mxGeometry x="373.5" y="300" width="80" height="50" as="geometry"/>
                </mxCell>
                <mxCell id="26" value="&lt;b style=&quot;border-color: var(--border-color);&quot;&gt;[&lt;font style=&quot;border-color: var(--border-color);&quot; color=&quot;#c02121&quot;&gt;Prompt-3&lt;/font&gt;]&lt;/b&gt;&lt;br&gt;Ask user if they want to give the story(press 'g') or they want to choose the story(press 'c') of there liking from the game&amp;nbsp;" style="shape=parallelogram;perimeter=parallelogramPerimeter;whiteSpace=wrap;html=1;fixedSize=1;" vertex="1" parent="1">
                    <mxGeometry x="240" y="420" width="374" height="80" as="geometry"/>
                </mxCell>
                <mxCell id="30" value="&lt;font style=&quot;font-size: 16px;&quot;&gt;'r'&lt;/font&gt;" style="text;html=1;align=center;verticalAlign=middle;resizable=0;points=[];autosize=1;strokeColor=none;fillColor=none;" vertex="1" parent="1">
                    <mxGeometry x="665" y="220" width="30" height="30" as="geometry"/>
                </mxCell>
                <mxCell id="33" value="&lt;span style=&quot;font-size: 16px;&quot;&gt;'k'&lt;/span&gt;" style="text;html=1;align=center;verticalAlign=middle;resizable=0;points=[];autosize=1;strokeColor=none;fillColor=none;" vertex="1" parent="1">
                    <mxGeometry x="175" y="220" width="40" height="30" as="geometry"/>
                </mxCell>
                <mxCell id="34" value="&lt;font style=&quot;font-size: 16px;&quot;&gt;'q'&lt;/font&gt;" style="text;html=1;align=center;verticalAlign=middle;resizable=0;points=[];autosize=1;strokeColor=none;fillColor=none;" vertex="1" parent="1">
                    <mxGeometry x="368.5" y="260" width="40" height="30" as="geometry"/>
                </mxCell>
                <mxCell id="38" style="edgeStyle=orthogonalEdgeStyle;rounded=0;sketch=0;jumpStyle=none;html=1;exitX=0.5;exitY=1;exitDx=0;exitDy=0;shadow=0;fontSize=16;fontColor=#c02121;entryX=0;entryY=0.5;entryDx=0;entryDy=0;" edge="1" parent="1" source="35" target="26">
                    <mxGeometry relative="1" as="geometry">
                        <mxPoint x="149.99999999999977" y="450" as="targetPoint"/>
                        <Array as="points">
                            <mxPoint x="140" y="440"/>
                        </Array>
                    </mxGeometry>
                </mxCell>
                <mxCell id="35" value="&lt;b style=&quot;border-color: var(--border-color); color: rgb(0, 0, 0); font-size: 12px;&quot;&gt;[&lt;font style=&quot;border-color: var(--border-color);&quot; color=&quot;#c02121&quot;&gt;Prompt-2&lt;/font&gt;]&lt;/b&gt;&lt;span style=&quot;color: rgb(0, 0, 0); font-size: 12px;&quot;&gt;&lt;br&gt;Ask user name:&lt;/span&gt;&lt;br style=&quot;border-color: var(--border-color); color: rgb(0, 0, 0); font-size: 12px;&quot;&gt;&lt;span style=&quot;color: rgb(0, 0, 0); font-size: 12px;&quot;&gt;(with checks)&lt;/span&gt;" style="shape=parallelogram;perimeter=parallelogramPerimeter;whiteSpace=wrap;html=1;fixedSize=1;fontSize=16;fontColor=#c02121;" vertex="1" parent="1">
                    <mxGeometry y="300" width="160" height="60" as="geometry"/>
                </mxCell>
                <mxCell id="41" value="&lt;b style=&quot;border-color: var(--border-color); color: rgb(0, 0, 0); font-size: 12px;&quot;&gt;[&lt;font style=&quot;border-color: var(--border-color);&quot; color=&quot;#c02121&quot;&gt;Prompt-4&lt;/font&gt;]&lt;/b&gt;&lt;br style=&quot;border-color: var(--border-color); color: rgb(0, 0, 0); font-size: 12px;&quot;&gt;&lt;span style=&quot;border-color: var(--border-color); color: rgb(0, 0, 0); font-size: 12px;&quot;&gt;Ask user to paste on &lt;br&gt;terminal and press enter&lt;/span&gt;" style="shape=parallelogram;perimeter=parallelogramPerimeter;whiteSpace=wrap;html=1;fixedSize=1;fontSize=16;fontColor=#c02121;" vertex="1" parent="1">
                    <mxGeometry x="40" y="524" width="190" height="76" as="geometry"/>
                </mxCell>
                <mxCell id="42" value="&lt;span style=&quot;color: rgb(0, 0, 0); font-size: 12px;&quot;&gt;rClear screen&amp;nbsp;&lt;br&gt;Ask user&amp;nbsp;&lt;br&gt;&lt;/span&gt;" style="whiteSpace=wrap;html=1;aspect=fixed;fontSize=16;fontColor=#c02121;" vertex="1" parent="1">
                    <mxGeometry x="340" y="650" width="80" height="80" as="geometry"/>
                </mxCell>
            </root>
        </mxGraphModel>
    </diagram>
</mxfile>